<?xml version="1.0" encoding="utf-8"?>
<!-- Generator: Adobe Illustrator 22.0.1, SVG Export Plug-In . SVG Version: 6.00 Build 0)  -->
<svg version="1.1" id="Layer_1" xmlns="http://www.w3.org/2000/svg" xmlns:xlink="http://www.w3.org/1999/xlink" x="0px" y="0px"
	 viewBox="0 0 1280 1280" style="enable-background:new 0 0 1280 1280;" xml:space="preserve">
<style type="text/css">
	.st0{fill:url(#SVGID_1_);}
	.st1{fill:url(#SVGID_2_);}
	.st2{fill:url(#SVGID_3_);}
	.st3{fill:#FC1C6A;}
</style>
<linearGradient id="SVGID_1_" gradientUnits="userSpaceOnUse" x1="178.3651" y1="649.5455" x2="96.4296" y2="507.6292" gradientTransform="matrix(-1 0 0 1 852.6602 0)">
	<stop  offset="0" style="stop-color:#3FF6FF"/>
	<stop  offset="0.6046" style="stop-color:#248886"/>
	<stop  offset="0.6092" style="stop-color:#367F84"/>
	<stop  offset="0.6209" style="stop-color:#5F6A7E"/>
	<stop  offset="0.6341" style="stop-color:#855879"/>
	<stop  offset="0.6485" style="stop-color:#A54775"/>
	<stop  offset="0.6644" style="stop-color:#C13A72"/>
	<stop  offset="0.6823" style="stop-color:#D72F6F"/>
	<stop  offset="0.7033" style="stop-color:#E7266D"/>
	<stop  offset="0.7292" style="stop-color:#F3206B"/>
	<stop  offset="0.7655" style="stop-color:#FA1D6A"/>
	<stop  offset="0.8664" style="stop-color:#FC1C6A"/>
</linearGradient>
<path class="st0" d="M703.5,477.4c0.3,0,0.7,0.1,0.9,0.3l0,0l0,0c0,0,0,0,0.1,0l49.2,31l0,0c0.5,0.3,0.9,0.9,0.9,1.5c0,0,0,0,0,0.1
	v0l0,0v122.8l0,0c0,0,0,0,0,0.1c0,0.6-0.4,1.2-0.9,1.5l0,0l-49.2,31c0,0,0,0-0.1,0l0,0l0,0c-0.3,0.2-0.6,0.3-0.9,0.3
	c-1,0-1.8-0.8-1.8-1.8v-30.1v0V510.5v-1.2v-30.1C701.7,478.2,702.5,477.4,703.5,477.4z"/>
<linearGradient id="SVGID_2_" gradientUnits="userSpaceOnUse" x1="617.6948" y1="648.0886" x2="534.1393" y2="509.0291">
	<stop  offset="0" style="stop-color:#3FF6FF"/>
	<stop  offset="0.6046" style="stop-color:#248886"/>
	<stop  offset="0.6092" style="stop-color:#367F84"/>
	<stop  offset="0.6209" style="stop-color:#5F6A7E"/>
	<stop  offset="0.6341" style="stop-color:#855879"/>
	<stop  offset="0.6485" style="stop-color:#A54775"/>
	<stop  offset="0.6644" style="stop-color:#C13A72"/>
	<stop  offset="0.6823" style="stop-color:#D72F6F"/>
	<stop  offset="0.7033" style="stop-color:#E7266D"/>
	<stop  offset="0.7292" style="stop-color:#F3206B"/>
	<stop  offset="0.7655" style="stop-color:#FA1D6A"/>
	<stop  offset="0.8664" style="stop-color:#FC1C6A"/>
</linearGradient>
<path class="st1" d="M587.2,477.4c-0.3,0-0.7,0.1-0.9,0.3l0,0l0,0c0,0,0,0-0.1,0l-49.2,31l0,0c-0.5,0.3-0.9,0.9-0.9,1.5
	c0,0,0,0,0,0.1v0l0,0v122.8l0,0c0,0,0,0,0,0.1c0,0.6,0.4,1.2,0.9,1.5l0,0l49.2,31c0,0,0,0,0.1,0l0,0l0,0c0.3,0.2,0.6,0.3,0.9,0.3
	c1,0,1.8-0.8,1.8-1.8v-30.1v0V510.5v-1.2v-30.1C589,478.2,588.2,477.4,587.2,477.4z"/>
<radialGradient id="SVGID_3_" cx="645.3359" cy="588.448" r="84.1997" gradientUnits="userSpaceOnUse">
	<stop  offset="0" style="stop-color:#FC1C6A"/>
	<stop  offset="1" style="stop-color:#D6004B"/>
</radialGradient>
<path class="st2" d="M754.6,572.5l-52.9-31.4l-56.4,32.4L589,541.1l-52.9,31.4l108.4,63h0c0.3,0.1,0.5,0.2,0.8,0.2
	c0.3,0,0.6-0.1,0.9-0.3l0,0L754.6,572.5z"/>
<g>
	<path class="st3" d="M399.2,762.3c-1,0-1.8-0.4-2.5-1.1c-0.7-0.7-1.1-1.6-1.1-2.5v-14.5h-18.7v14.5c0,1-0.3,1.8-1,2.5
		c-0.7,0.7-1.6,1.1-2.5,1.1c-1,0-1.8-0.4-2.5-1.1c-0.7-0.7-1.1-1.6-1.1-2.5v-36.2c0-1,0.4-1.8,1.1-2.5c0.7-0.7,1.6-1.1,2.5-1.1
		c1,0,1.8,0.4,2.5,1.1c0.7,0.7,1,1.6,1,2.5V737h18.7v-14.5c0-1,0.4-1.8,1.1-2.5c0.7-0.7,1.6-1.1,2.5-1.1c1,0,1.8,0.4,2.5,1.1
		c0.7,0.7,1.1,1.6,1.1,2.5v36.2c0,1-0.4,1.8-1.1,2.5C401,761.9,400.2,762.3,399.2,762.3z"/>
	<path class="st3" d="M442.8,755.1c1,0,1.8,0.4,2.5,1.1c0.7,0.7,1.1,1.6,1.1,2.5c0,1-0.4,1.8-1.1,2.5c-0.7,0.7-1.5,1.1-2.5,1.1
		h-21.9c-1,0-1.8-0.4-2.5-1.1c-0.7-0.7-1.1-1.5-1.1-2.5v-36.3c0-1,0.4-1.9,1.1-2.5c0.7-0.7,1.5-1.1,2.5-1.1h0l21.9,0.1
		c1,0,1.8,0.4,2.5,1.1c0.7,0.7,1,1.6,1,2.5s-0.4,1.8-1.1,2.5c-0.7,0.7-1.5,1.1-2.5,1.1h0l-18.3-0.1v11h13.2c1,0,1.8,0.3,2.5,1
		c0.7,0.7,1.1,1.6,1.1,2.5s-0.4,1.8-1.1,2.5c-0.7,0.7-1.6,1-2.5,1h-13.2v11H442.8z"/>
	<path class="st3" d="M487.6,719.6c0.8,0.6,1.3,1.4,1.5,2.3c0.2,1,0,1.9-0.6,2.7l-11.4,16l11.4,16c0.6,0.8,0.8,1.7,0.6,2.7
		c-0.2,1-0.6,1.7-1.5,2.3c-0.6,0.4-1.3,0.7-2.1,0.7c-1.2,0-2.2-0.5-2.9-1.5l-9.9-14l-9.9,14c-0.7,1-1.7,1.5-2.9,1.5
		c-0.8,0-1.5-0.2-2.1-0.7c-0.8-0.6-1.3-1.3-1.5-2.3c-0.2-1,0-1.9,0.6-2.7l11.4-16l-11.4-16c-0.6-0.8-0.8-1.7-0.6-2.7
		c0.2-1,0.6-1.7,1.5-2.3c0.8-0.6,1.7-0.8,2.7-0.6c1,0.2,1.7,0.7,2.3,1.5l9.9,14l9.9-14c0.6-0.8,1.3-1.3,2.3-1.5
		C485.9,718.8,486.8,719,487.6,719.6z"/>
	<path class="st3" d="M498.3,762c-0.9-0.4-1.6-1-1.9-1.9c-0.4-0.9-0.4-1.8,0-2.7l3.8-9.2v0l11.1-26.9c0-0.1,0.1-0.2,0.2-0.3l0.1-0.2
		c0.1-0.1,0.1-0.1,0.1-0.2c0,0,0-0.1,0.1-0.2c0.1-0.1,0.1-0.1,0.1-0.1c0,0,0-0.1,0.1-0.1c0.1-0.1,0.1-0.1,0.1-0.2
		c0,0,0.1-0.1,0.1-0.1c0.1-0.1,0.1-0.1,0.2-0.1c0,0,0,0,0.1-0.1c0.1-0.1,0.1-0.1,0.2-0.1l0.1-0.1c0.1-0.1,0.2-0.1,0.2-0.1
		c0,0,0.1-0.1,0.2-0.1c0.1-0.1,0.1-0.1,0.1-0.1c0,0,0,0,0.1-0.1c0.1,0,0.2,0,0.2-0.1c0,0,0.1,0,0.2-0.1l0.1,0c0,0,0.1,0,0.2,0l0.2,0
		c0,0,0.1,0,0.2,0c0.1,0,0.1,0,0.2,0c0,0,0.1,0,0.2,0h0.2l0.2,0l0.2,0c0,0,0.1,0,0.2,0.1c0.1,0,0.2,0,0.1,0c0.2,0.1,0.5,0.2,0.7,0.3
		c0,0,0,0,0.1,0.1c0.1,0.1,0.2,0.1,0.2,0.1l0.1,0.1c0.1,0.1,0.1,0.1,0.2,0.1c0,0,0.1,0,0.1,0.1s0.1,0.1,0.2,0.1c0,0,0,0.1,0.1,0.1
		c0.1,0.1,0.1,0.1,0.1,0.2l0.1,0.1c0.1,0.1,0.1,0.1,0.1,0.2c0,0,0,0.1,0.1,0.2c0.1,0.1,0.1,0.1,0.1,0.2c0.1,0.1,0.1,0.2,0.2,0.3
		l11.1,26.9v0l3.8,9.2c0.4,0.9,0.4,1.8,0,2.7c-0.4,0.9-1,1.6-1.9,1.9c-0.4,0.2-0.9,0.3-1.4,0.3c-1.6,0-2.7-0.7-3.3-2.2l-2.9-7h-17.5
		l-2.9,7c-0.6,1.5-1.7,2.2-3.3,2.2c-0.5,0-0.7,0-0.7,0S498.8,762.2,498.3,762z M520.5,745.9l-5.8-14.1l-5.8,14.1H520.5z"/>
	<path class="st3" d="M559.4,762.2c-6,0-11.1-2.1-15.3-6.4c-4.2-4.2-6.4-9.4-6.4-15.3s2.1-11.1,6.4-15.3c4.2-4.2,9.4-6.4,15.3-6.4
		c4.9,0,9.3,1.5,13.2,4.5c0.8,0.6,1.3,1.4,1.4,2.4c0.1,1-0.1,1.8-0.7,2.6c-0.6,0.8-1.4,1.2-2.4,1.4c-1,0.1-1.9-0.1-2.7-0.7
		c-2.6-2-5.5-3-8.8-3c-4,0-7.4,1.4-10.3,4.2c-2.8,2.8-4.2,6.3-4.2,10.2c0,4,1.4,7.4,4.2,10.3c2.8,2.8,6.3,4.2,10.3,4.2
		c3.7,0,7-1.3,9.8-3.8c0,0,0.1-0.1,0.2-0.2l0-7.9h-11.8c-1,0-1.9-0.3-2.5-1c-0.7-0.7-1.1-1.6-1.1-2.5c0-1,0.4-1.8,1.1-2.5
		c0.7-0.7,1.5-1.1,2.5-1.1H573c1,0,1.8,0.4,2.5,1.1c0.7,0.7,1.1,1.6,1.1,2.5l-0.1,19.2c0,1-0.4,1.8-1.1,2.5
		c-0.7,0.7-1.5,1.1-2.5,1.1h0c-0.8,0-1.5-0.3-2.2-0.8c-0.6-0.5-1-1.1-1.2-1.8C566.3,761.3,563,762.2,559.4,762.2z"/>
	<path class="st3" d="M607.7,762.3c-6,0-11.1-2.1-15.4-6.4c-4.3-4.2-6.4-9.4-6.4-15.4c0-6,2.1-11.1,6.4-15.4
		c4.2-4.2,9.4-6.4,15.4-6.4c6,0,11.1,2.1,15.4,6.4c4.2,4.3,6.4,9.4,6.4,15.4c0,6-2.1,11.1-6.4,15.4
		C618.9,760.2,613.7,762.3,607.7,762.3z M607.7,725.9c-4,0-7.5,1.4-10.3,4.3c-2.9,2.9-4.3,6.3-4.3,10.3s1.4,7.5,4.3,10.3
		c2.8,2.9,6.3,4.3,10.3,4.3c4,0,7.5-1.4,10.3-4.3c2.8-2.8,4.3-6.3,4.3-10.3s-1.4-7.5-4.3-10.3C615.2,727.4,611.7,725.9,607.7,725.9z
		"/>
	<path class="st3" d="M667.9,760.9L667.9,760.9L667.9,760.9l-21.8-28.1v25.8c0,1-0.4,1.8-1.1,2.5c-0.7,0.7-1.5,1.1-2.5,1.1
		c-1,0-1.8-0.4-2.5-1.1c-0.7-0.7-1.1-1.5-1.1-2.5v-36.3c0-0.8,0.2-1.5,0.7-2.1c0.4-0.6,1-1.1,1.8-1.3c0.7-0.3,1.4-0.3,2.2-0.1
		c0.7,0.2,1.3,0.6,1.8,1.2l21.8,28.1v-25.9c0-1,0.3-1.8,1-2.5c0.7-0.7,1.6-1.1,2.5-1.1c1,0,1.8,0.4,2.5,1.1c0.7,0.7,1.1,1.5,1.1,2.5
		v36.4c0,0,0,0.1,0,0.2c0,0.1,0,0.1,0,0.2c0,0,0,0.1,0,0.2c0,0.1,0,0.1,0,0.2l0,0.2c0,0.1,0,0.2-0.1,0.2c0,0,0,0.1-0.1,0.2
		c0,0.1,0,0.1-0.1,0.2l-0.1,0.2l-0.1,0.2c0,0-0.1,0.1-0.1,0.2l-0.1,0.1c0,0-0.1,0.1-0.1,0.2l-0.1,0.1c0,0-0.1,0.1-0.1,0.1
		c-0.1,0.1-0.1,0.1-0.1,0.1c0,0,0,0.1-0.1,0.1c-0.1,0.1-0.1,0.1-0.2,0.1c0.1,0,0,0,0,0l0,0c-0.2,0.1-0.3,0.2-0.5,0.3h0
		c-0.2,0.1-0.3,0.2-0.5,0.2c-0.1,0-0.1,0.1-0.1,0c-0.2,0.1-0.3,0.1-0.5,0.1l-0.1,0c-0.2,0-0.4,0-0.5,0c-0.1,0-0.3,0-0.4,0
		c0,0,0,0-0.1,0c-0.1,0-0.2,0-0.3-0.1c0,0,0,0-0.1,0c-0.1,0-0.2,0-0.2-0.1c0,0-0.1,0-0.1-0.1c-0.1,0-0.2-0.1-0.2-0.1
		c0,0-0.1,0-0.1-0.1c-0.1,0-0.2-0.1-0.2-0.1c-0.1,0-0.1-0.1-0.1-0.1c-0.1,0-0.1-0.1-0.2-0.2c-0.1,0-0.1-0.1-0.1-0.1
		c-0.1-0.1-0.2-0.2-0.3-0.2l0,0v0c-0.1-0.1-0.1-0.1-0.1-0.1S667.9,761,667.9,760.9z"/>
	<path class="st3" d="M748.9,718.9c0.8,0.2,1.4,0.7,1.9,1.3c0.5,0.6,0.7,1.3,0.7,2.2v36.4c0,1-0.3,1.8-1,2.5
		c-0.7,0.7-1.6,1.1-2.5,1.1c-1,0-1.8-0.4-2.5-1.1c-0.7-0.7-1-1.5-1-2.5v-23.6l-11.3,18.7v0l0,0l0,0l0,0c-0.1,0.1-0.1,0.2-0.1,0.2
		l-0.1,0.1c-0.1,0.1-0.1,0.1-0.2,0.2c0,0-0.1,0.1-0.1,0.1c-0.1,0.1-0.1,0.1-0.1,0.1c0,0-0.1,0.1-0.2,0.2l-0.1,0.1
		c-0.1,0-0.1,0.1-0.2,0.1c0,0,0,0,0,0l0,0h0c0,0-0.1,0.1-0.2,0.1c-0.1,0-0.1,0.1-0.1,0.1c0,0-0.1,0-0.2,0.1c-0.5,0.2-1,0.3-1.5,0.3
		h-0.1c0,0,0,0-0.1,0c-0.3,0-0.5-0.1-0.8-0.2c-0.1,0-0.1,0-0.1,0c0,0,0,0-0.1,0c-0.1,0-0.2-0.1-0.2-0.1c0,0,0,0-0.1-0.1
		c-0.1,0-0.2-0.1-0.2-0.1h0l0,0l0,0c-0.1,0-0.2-0.1-0.2-0.2c0,0,0,0-0.1-0.1c-0.1-0.1-0.1-0.1-0.2-0.2c0,0-0.1-0.1-0.1-0.1
		c-0.1-0.1-0.1-0.1-0.1-0.1c0,0-0.1-0.1-0.2-0.2c0-0.1-0.1-0.1-0.1-0.1c0,0-0.1-0.1-0.2-0.2l0,0c0,0,0,0,0,0v0c0,0,0,0,0,0
		l-11.3-18.7v23.6c0,1-0.4,1.8-1.1,2.5c-0.7,0.7-1.6,1.1-2.5,1.1c-1,0-1.8-0.4-2.5-1.1c-0.7-0.7-1.1-1.5-1.1-2.5v-36.4
		c0-0.8,0.2-1.5,0.7-2.2c0.5-0.6,1.1-1.1,1.9-1.3c0.8-0.2,1.5-0.2,2.3,0.1c0.7,0.3,1.3,0.8,1.8,1.5l14.9,24.6l14.9-24.6
		c0.4-0.7,1-1.2,1.7-1.5c0.7-0.3,1.1-0.4,1.1-0.4S748.1,718.7,748.9,718.9z"/>
	<path class="st3" d="M769.6,762.3c-1,0-1.8-0.4-2.5-1.1c-0.7-0.7-1.1-1.5-1.1-2.5v-36.1c0-1,0.4-1.8,1.1-2.5
		c0.7-0.7,1.5-1.1,2.5-1.1c1,0,1.8,0.4,2.5,1.1c0.7,0.7,1.1,1.5,1.1,2.5v36.1c0,1-0.4,1.8-1.1,2.5
		C771.4,761.9,770.6,762.3,769.6,762.3z"/>
	<path class="st3" d="M814.5,749.4c-0.2,3.6-1.6,6.7-4.3,9.2c-2.7,2.5-6,3.8-9.8,3.8c-3.3,0-6.2-0.7-8.8-2.1c-3.1-1.7-5.1-4.2-6-7.4
		c-0.2-0.9-0.1-1.8,0.4-2.7c0.5-0.8,1.2-1.4,2.2-1.6c0.9-0.2,1.8-0.1,2.7,0.4c0.8,0.5,1.4,1.2,1.6,2.2c0.4,1.4,1.4,2.4,3,3.2
		c1.5,0.7,3.1,1,5,1c1.9,0,3.5-0.6,4.9-1.8c1.4-1.2,2.1-2.6,2.2-4.4c0-1.1-0.3-2-1.1-2.8c-1.3-1.3-3.4-2-6.3-2.1h0
		c-0.1,0-0.1,0-0.1,0c0,0,0,0-0.1,0c-4.9-0.1-8.7-1.5-11.4-4.3c-2.2-2.3-3.2-5-3-8c0.2-3.6,1.6-6.7,4.3-9.2c2.7-2.5,6-3.8,9.8-3.8
		c3.3,0,6.2,0.7,8.8,2.1c3.1,1.7,5.1,4.2,6,7.4c0.2,0.9,0.1,1.8-0.4,2.7c-0.5,0.8-1.2,1.4-2.2,1.6c-1,0.2-1.8,0.1-2.7-0.4
		c-0.8-0.5-1.4-1.2-1.6-2.2c-0.4-1.4-1.4-2.4-3-3.2c-1.4-0.7-3.1-1-4.9-1c-1.9,0-3.5,0.6-4.9,1.8c-1.4,1.2-2.1,2.6-2.2,4.4
		c0,1.1,0.3,2,1.1,2.8c1.3,1.3,3.4,2,6.3,2h0.2c4.9,0.1,8.7,1.5,11.4,4.3C813.6,743.6,814.6,746.3,814.5,749.4z"/>
	<path class="st3" d="M851.1,718.9c1,0,1.8,0.4,2.5,1.1c0.7,0.7,1,1.6,1,2.5s-0.4,1.8-1.1,2.5c-0.7,0.7-1.5,1.1-2.5,1.1h0l-18.3-0.1
		v11H846c1,0,1.8,0.3,2.5,1c0.7,0.7,1.1,1.6,1.1,2.5s-0.4,1.8-1.1,2.5c-0.7,0.7-1.6,1-2.5,1h-13.2v14.6c0,1-0.4,1.8-1.1,2.5
		c-0.7,0.7-1.6,1.1-2.5,1.1c-1,0-1.8-0.4-2.5-1.1c-0.7-0.7-1.1-1.5-1.1-2.5v-36.3c0-1,0.4-1.9,1.1-2.5c0.7-0.7,1.5-1.1,2.5-1.1h0
		L851.1,718.9z"/>
	<path class="st3" d="M864.8,762.3c-1,0-1.8-0.4-2.5-1.1c-0.7-0.7-1.1-1.5-1.1-2.5v-36.1c0-1,0.4-1.8,1.1-2.5
		c0.7-0.7,1.5-1.1,2.5-1.1c1,0,1.8,0.4,2.5,1.1c0.7,0.7,1.1,1.5,1.1,2.5v36.1c0,1-0.4,1.8-1.1,2.5
		C866.7,761.9,865.8,762.3,864.8,762.3z"/>
	<path class="st3" d="M888.8,725.9h-9c-1,0-1.8-0.4-2.5-1.1c-0.7-0.7-1-1.5-1-2.5s0.3-1.8,1-2.5c0.7-0.7,1.6-1.1,2.5-1.1H905
		c1,0,1.8,0.4,2.5,1.1c0.7,0.7,1,1.5,1,2.5s-0.3,1.8-1,2.5c-0.7,0.7-1.5,1.1-2.5,1.1h-9v32.8c0,1-0.4,1.8-1.1,2.5
		c-0.7,0.7-1.5,1-2.5,1c-1,0-1.8-0.3-2.5-1c-0.7-0.7-1.1-1.6-1.1-2.5V725.9z"/>
</g>
</svg>
